Coordinates
version=1
nRows=17
nColumns=40
inDegrees=yes

Units are S.I. units (second, meters, Newtons, ...)
If the header above contains a line with 'inDegrees', this indicates whether rotational values are in degrees (yes) or radians (no).

endheader
time	pelvis_tilt	pelvis_list	pelvis_rotation	pelvis_tx	pelvis_ty	pelvis_tz	hip_flexion_r	hip_adduction_r	hip_rotation_r	knee_angle_r	knee_angle_r_beta	ankle_angle_r	subtalar_angle_r	mtp_angle_r	hip_flexion_l	hip_adduction_l	hip_rotation_l	knee_angle_l	knee_angle_l_beta	ankle_angle_l	subtalar_angle_l	mtp_angle_l	lumbar_extension	lumbar_bending	lumbar_rotation	arm_flex_r	arm_add_r	arm_rot_r	elbow_flex_r	pro_sup_r	wrist_flex_r	wrist_dev_r	arm_flex_l	arm_add_l	arm_rot_l	elbow_flex_l	pro_sup_l	wrist_flex_l	wrist_dev_l
      6.00000000	     -7.48567989	      6.67100657	     89.99236319	      0.46544961	      0.81763127	     -0.68014091	     22.95421133	     29.98636936	     39.94380526	     47.05374949	      0.82124285	     -3.37414401	      0.00000000	      0.00000000	    -29.45581264	     -0.11508508	    -39.98350555	      0.02318808	      0.00040471	     26.90406780	      0.00000000	      0.00000000	    -60.86533989	    -89.98211108	     19.49627124	     74.91680737	     13.04553481	      8.24809105	      9.77503575	     16.70733107	      0.00000000	      0.00000000	     71.13582287	    -17.48048862	      4.75035055	     10.28770568	     20.90277777	      0.00000000	      0.00000000
      6.00500000	     -7.68326392	      6.67598764	     89.99234864	      0.46580510	      0.81650079	     -0.68030990	     23.05502908	     29.98631543	     39.94362400	     47.44771894	      0.82811892	     -3.26379374	      0.00000000	      0.00000000	    -29.50010107	      0.01786798	    -39.98345580	      0.02327577	      0.00040624	     27.05120430	      0.00000000	      0.00000000	    -61.09789420	    -89.98202301	     19.25349230	     74.72131666	     13.02846127	      8.24314460	      9.92303548	     17.06656113	      0.00000000	      0.00000000	     70.91815278	    -17.56055771	      4.79307493	     10.43375439	     21.14865332	      0.00000000	      0.00000000
      6.01000000	     -7.83036146	      6.68045263	     89.99235196	      0.46611001	      0.81555459	     -0.68044191	     23.11645584	     29.98628404	     39.94376494	     47.71661092	      0.83281197	     -2.94409433	      0.00000000	      0.00000000	    -29.53110181	      0.10490813	    -39.98340549	      0.02336841	      0.00040786	     26.94857942	      0.00000000	      0.00000000	    -61.49079758	    -89.98192319	     19.19525073	     74.97196685	     12.81601256	      8.24406226	      9.33738869	     17.31637554	      0.00000000	      0.00000000	     71.02951531	    -17.10149860	      4.87236569	     10.13907823	     21.32912616	      0.00000000	      0.00000000
      6.01500000	     -7.99997847	      6.67298057	     89.99234084	      0.46646985	      0.81453035	     -0.68049928	     23.20541966	     29.98622516	     39.94397276	     48.02307001	      0.83816069	     -2.75713504	      0.00000000	      0.00000000	    -29.54957730	      0.21039947	    -39.98335316	      0.02345329	      0.00040934	     27.07979974	      0.00000000	      0.00000000	    -61.62968935	    -89.98185364	     19.09858751	     74.86405184	     12.75550324	      8.25289412	      9.32251816	     17.78093641	      0.00000000	      0.00000000	     70.87904447	    -17.05936778	      4.86329403	     10.17280674	     21.66616095	      0.00000000	      0.00000000
      6.02000000	     -8.17931177	      6.64618955	     89.99232923	      0.46679227	      0.81342641	     -0.68063883	     23.32845832	     29.98615507	     39.94417235	     48.36803138	      0.84418140	     -2.56668746	      0.00000000	      0.00000000	    -29.56318356	      0.33486111	    -39.98331203	      0.02351519	      0.00041042	     27.22108158	      0.00000000	      0.00000000	    -61.75156460	    -89.98177306	     18.97781039	     74.77614302	     12.67748680	      8.26146347	      9.23607004	     18.20730745	      0.00000000	      0.00000000	     70.80023541	    -17.06141616	      4.81314826	     10.16446431	     21.97930342	      0.00000000	      0.00000000
      6.02500000	     -8.33843248	      6.62108535	     89.99231015	      0.46707282	      0.81246976	     -0.68079783	     23.42582829	     29.98608496	     39.94427731	     48.66801764	      0.84941715	     -2.39976163	      0.00000000	      0.00000000	    -29.56515105	      0.43981065	    -39.98325125	      0.02360589	      0.00041200	     27.44283675	      0.00000000	      0.00000000	    -61.94730545	    -89.98162157	     18.77420932	     74.80129462	     12.74005409	      8.34425448	      9.11879545	     17.89050720	      0.00000000	      0.00000000	     71.10068849	    -16.74415142	      3.14510340	      9.95622068	     21.71298557	      0.00000000	      0.00000000
      6.03000000	     -8.50341829	      6.61719814	     89.99230552	      0.46739507	      0.81144055	     -0.68088940	     23.51611507	     29.98604873	     39.94443822	     48.98685943	      0.85498199	     -2.21277524	      0.00000000	      0.00000000	    -29.58640830	      0.54424990	    -39.98320829	      0.02368331	      0.00041335	     27.59345121	      0.00000000	      0.00000000	    -62.08442590	    -89.98158291	     18.57977995	     74.60338436	     12.75601532	      8.34520380	      9.27902612	     18.22435980	      0.00000000	      0.00000000	     70.78323010	    -16.91944518	      3.32806672	      9.95775142	     21.94426146	      0.00000000	      0.00000000
      6.03500000	     -8.68065765	      6.57134627	     89.99228868	      0.46775979	      0.81036367	     -0.68099894	     23.64910598	     29.98593325	     39.94499547	     49.29795880	      0.86041170	     -2.14703699	      0.00000000	      0.00000000	    -29.57190385	      0.66463766	    -39.98315631	      0.02374180	      0.00041437	     28.13472355	      0.00000000	      0.00000000	    -62.15756952	    -89.98143699	     18.13012660	     74.05094942	     13.02640756	      8.35477983	      9.91381777	     18.80168091	      0.00000000	      0.00000000	     70.39650149	    -17.40414930	      3.34045847	     10.44939576	     22.36889822	      0.00000000	      0.00000000
      6.04000000	     -8.83761285	      6.57656527	     89.99228996	      0.46811036	      0.80940533	     -0.68103899	     23.72168489	     29.98591016	     39.94490290	     49.59818026	      0.86565155	     -1.89383598	      0.00000000	      0.00000000	    -29.60334337	      0.76292389	    -39.98312519	      0.02381047	      0.00041557	     27.96153789	      0.00000000	      0.00000000	    -66.52767600	    -89.97944605	     14.17618712	     74.46451379	     12.61866951	      9.32622660	      8.84582958	     21.87562658	      0.00000000	      0.00000000	     70.54448188	    -16.86445275	      3.56262619	      9.89997370	     24.91012124	      0.00000000	      0.00000000
      6.04500000	     -9.00890543	      6.55981229	     89.99226390	      0.46842003	      0.80840883	     -0.68120104	     23.81905097	     29.98580602	     39.94530364	     49.92109182	      0.87128742	     -1.82102921	      0.00000000	      0.00000000	    -29.61739463	      0.87432138	    -39.98305939	      0.02392575	      0.00041758	     28.27737343	      0.00000000	      0.00000000	    -66.63626456	    -89.97930246	     13.85124877	     73.98439297	     12.69386649	      9.30794917	      9.54787930	     22.22147067	      0.00000000	      0.00000000	     70.06013660	    -17.19814686	      3.49582015	     10.39269996	     25.16484411	      0.00000000	      0.00000000
      6.05000000	     -9.14996296	      6.53596105	     89.99226279	      0.46876320	      0.80750225	     -0.68126358	     23.90773991	     29.98576425	     39.94529705	     50.16744686	      0.87558713	     -1.57253355	      0.00000000	      0.00000000	    -29.61939096	      0.95794625	    -39.98301928	      0.02397870	      0.00041851	     28.22257318	      0.00000000	      0.00000000	    -65.48239359	    -89.97985000	     15.27028866	     74.32061061	     12.54845338	      9.47783272	      9.23634250	     16.61332544	      0.00000000	      0.00000000	     70.69308421	    -16.52854901	      1.96885186	     10.04848780	     20.37103785	      0.00000000	      0.00000000
      6.05500000	     -9.29981539	      6.52371910	     89.99225893	      0.46909414	      0.80657691	     -0.68135959	     23.98616291	     29.98570444	     39.94558620	     50.43918702	      0.88032989	     -1.36857972	      0.00000000	      0.00000000	    -29.63532029	      1.05257083	    -39.98297926	      0.02404254	      0.00041962	     28.35239817	      0.00000000	      0.00000000	    -65.68297942	    -89.97981502	     15.04802955	     74.12975877	     12.51036248	      9.45904899	      9.38368107	     17.09966117	      0.00000000	      0.00000000	     70.40145682	    -16.63837185	      2.07668389	     10.12323660	     20.74210312	      0.00000000	      0.00000000
      6.06000000	     -9.46710469	      6.49093367	     89.99224043	      0.46944821	      0.80556604	     -0.68148546	     24.09906852	     29.98561461	     39.94590796	     50.74190532	      0.88561332	     -1.33081737	      0.00000000	      0.00000000	    -29.63520873	      1.16677862	    -39.98292832	      0.02411256	      0.00042084	     28.82078049	      0.00000000	      0.00000000	    -65.73668585	    -89.97969875	     14.67706825	     73.66348013	     12.70316792	      9.44915833	      9.97584516	     17.67115872	      0.00000000	      0.00000000	     69.99853862	    -17.06636356	      2.10532924	     10.53276450	     21.16959366	      0.00000000	      0.00000000
      6.06500000	     -9.60841989	      6.47222415	     89.99225045	      0.46984920	      0.80467958	     -0.68154954	     24.18133199	     29.98557982	     39.94595868	     50.98958012	      0.88993606	     -1.05677925	      0.00000000	      0.00000000	    -29.64623116	      1.24629813	    -39.98289697	      0.02415853	      0.00042165	     28.68197673	      0.00000000	      0.00000000	    -66.09587841	    -89.97960652	     14.61096476	     74.06597565	     12.52512249	      9.44444481	      9.20474436	     17.92568640	      0.00000000	      0.00000000	     70.26354439	    -16.63533311	      2.31195766	     10.00676451	     21.38216445	      0.00000000	      0.00000000
      6.07000000	     -9.74146705	      6.45394436	     89.99224171	      0.47018794	      0.80383107	     -0.68160791	     24.25729364	     29.98552487	     39.94615728	     51.20843185	      0.89375574	     -0.94238128	      0.00000000	      0.00000000	    -29.65274292	      1.32446069	    -39.98285995	      0.02422808	      0.00042286	     28.80259689	      0.00000000	      0.00000000	    -66.30726014	    -89.97945638	     14.41652293	     73.97326760	     12.47316093	      9.43222689	      9.24269371	     18.31180400	      0.00000000	      0.00000000	     70.12770855	    -16.62295385	      2.29450357	     10.12253530	     21.69358316	      0.00000000	      0.00000000
      6.07500000	     -9.89271276	      6.42880495	     89.99223339	      0.47059401	      0.80291306	     -0.68169554	     24.35429968	     29.98545560	     39.94638207	     51.47898549	      0.89847779	     -0.81848951	      0.00000000	      0.00000000	    -29.65568648	      1.41439110	    -39.98281967	      0.02427744	      0.00042372	     28.90337885	      0.00000000	      0.00000000	    -66.51179824	    -89.97933819	     14.23093216	     73.96580391	     12.42380441	      9.42266831	      9.16708704	     18.60222205	      0.00000000	      0.00000000	     70.05723280	    -16.56597702	      2.22113505	     10.10472496	     21.93038824	      0.00000000	      0.00000000
      6.08000000	    -10.05880613	      6.39649547	     89.99221572	      0.47095545	      0.80195710	     -0.68180370	     24.46545938	     29.98536395	     39.94652690	     51.77576353	      0.90365755	     -0.79247230	      0.00000000	      0.00000000	    -29.65563786	      1.52730207	    -39.98278079	      0.02428099	      0.00042378	     29.35099412	      0.00000000	      0.00000000	    -66.56692299	    -89.97925528	     13.88021797	     73.42764197	     12.60817493	      9.40946818	      9.81357743	     19.10511044	      0.00000000	      0.00000000	     69.62692733	    -16.96122791	      2.19212370	     10.58145350	     22.31505269	      0.00000000	      0.00000000
